:version 1.10
:name ASF
:units
  mass 1
  length 1
  angle deg
:documentation
  ASF file generated by Kaydara
:root
  axis xyz
  order  tx ty tz rx ry rz
  position 0 0 0
  orientation 0 0 0
:bonedata
  begin
    id 1
    name RightUpLegDummy
    direction -1 2.30186e-007 8.31532e-007
    length 4.46685
    axis 0 0 0 xyz
  end
  begin
    id 2
    name RightUpLeg
    direction -2.30187e-007 -1 1.24343e-010
    length 16.4045
    axis -3.49089 -0.000906625 0.000286804 xyz
    dof rx ry rz
  end
  begin
    id 3
    name RightLeg
    direction -2.30181e-007 -1 -4.17157e-009
    length 17.5097
    axis 3.68512 0.0193738 -0.131023 xyz
    dof rx ry rz
  end
  begin
    id 4
    name RightFoot
    direction 8.31421e-007 -4.51202e-011 1
    length 6.49508
    axis 4.81691e-005 -0.120479 -0.188788 xyz
    dof rx ry rz
  end
  begin
    id 5
    name RightToes
    direction 0.00124746 -0.014064 0.9999
    length 3.85082
    axis 0.000481921 0.542163 -0.142578 xyz
    dof rx ry rz
  end
  begin
    id 6
    name SpineDummy
    direction 0.0717043 0.9409 -0.331007
    length 10.0032
    axis 0 0 0 xyz
  end
  begin
    id 7
    name Spine
    direction 2.30186e-007 1 4.58806e-011
    length 9.84055
    axis -0.001389 0.000121418 2.40972e-006 xyz
    dof rx ry rz
  end
  begin
    id 8
    name Spine1
    direction 0 0 0
    length 0
    axis -0.001389 0.000121451 1.30017e-006 xyz
    dof rx ry rz
  end
  begin
    id 9
    name HEadDummy
    direction -0.00347485 0.950688 -0.310128
    length 8.00997
    axis -0.001389 0.000121451 1.30017e-006 xyz
  end
  begin
    id 10
    name HEad
    direction -0.0222688 0.980941 0.193023
    length 5.12695
    axis -0.001389 0.000121451 1.30017e-006 xyz
    dof rx ry rz
  end
  begin
    id 11
    name LeftShoulder1Dummy
    direction 0.988871 0.146793 -0.0242004
    length 3.5792
    axis -0.001389 0.000121451 1.30017e-006 xyz
  end
  begin
    id 12
    name LeftShoulder1
    direction 0.993832 0.108932 0.020779
    length 4.16823
    axis -0.001389 0.000121451 1.30017e-006 xyz
    dof rx ry rz
  end
  begin
    id 13
    name LeftArm
    direction 1 3.44807e-006 -8.31404e-007
    length 9.91437
    axis -23.1894 0.134784 0.967509 xyz
    dof rx ry rz
  end
  begin
    id 14
    name LeftForeArm
    direction 1 3.44842e-006 -8.31581e-007
    length 9.08575
    axis -9.91835 -0.06569 -0.177793 xyz
    dof rx ry rz
  end
  begin
    id 15
    name LeftHand
    direction 0.992938 -0.0411636 0.11126
    length 5.32135
    axis -0.00960232 -0.00340091 0.185173 xyz
    dof rx ry rz
  end
  begin
    id 16
    name RightShoulderDummy
    direction -0.988871 0.146793 -0.0241962
    length 3.5792
    axis -0.001389 0.000121451 1.30017e-006 xyz
  end
  begin
    id 17
    name RightShoulder
    direction -0.993832 0.108933 0.0207785
    length 4.16823
    axis 0.215806 0.000203643 -0.0068026 xyz
    dof rx ry rz
  end
  begin
    id 18
    name RightArm
    direction -1 3.90912e-006 8.31284e-007
    length 9.91437
    axis -23.2009 -0.134239 -0.964101 xyz
    dof rx ry rz
  end
  begin
    id 19
    name RightForeArm
    direction -1 3.90882e-006 8.31502e-007
    length 9.08575
    axis -9.92322 0.0658061 0.178867 xyz
    dof rx ry rz
  end
  begin
    id 20
    name RightHand
    direction -0.992843 -0.0414603 0.112003
    length 5.28593
    axis -0.00960638 0.00330671 -0.185228 xyz
    dof rx ry rz
  end
  begin
    id 21
    name LeftUpLegDummy
    direction 1 -2.30186e-007 -8.31532e-007
    length 4.46685
    axis 0 0 0 xyz
  end
  begin
    id 22
    name LeftUpLeg
    direction -2.30187e-007 -1 6.00931e-010
    length 16.4045
    axis -3.48766 0.00143442 -0.000524262 xyz
    dof rx ry rz
  end
  begin
    id 23
    name LeftLeg
    direction -2.30187e-007 -1 1.6669e-009
    length 17.5097
    axis 3.68178 -0.00654042 -0.000285133 xyz
    dof rx ry rz
  end
  begin
    id 24
    name LeftFoot
    direction 8.31532e-007 -4.54478e-011 1
    length 6.49508
    axis 1.87233e-006 4.66016e-005 -8.6538e-006 xyz
    dof rx ry rz
  end
  begin
    id 25
    name LeftToes
    direction 0.00818058 -0.00485161 0.999955
    length 3.85048
    axis 1.06247e-005 4.65869e-005 -8.65513e-006 xyz
    dof rx ry rz
  end
:hierarchy
  begin
    root RightUpLegDummy SpineDummy LeftUpLegDummy
    RightUpLegDummy RightUpLeg
    RightUpLeg RightLeg
    RightLeg RightFoot
    RightFoot RightToes
    SpineDummy Spine
    Spine Spine1
    Spine1 HEadDummy LeftShoulder1Dummy RightShoulderDummy
    HEadDummy HEad
    LeftShoulder1Dummy LeftShoulder1
    LeftShoulder1 LeftArm
    LeftArm LeftForeArm
    LeftForeArm LeftHand
    RightShoulderDummy RightShoulder
    RightShoulder RightArm
    RightArm RightForeArm
    RightForeArm RightHand
    LeftUpLegDummy LeftUpLeg
    LeftUpLeg LeftLeg
    LeftLeg LeftFoot
    LeftFoot LeftToes
  end

:SAMPLES-PER-SECOND 30
:FULLY-SPECIFIED
:DEGREES
21
root  -70.0408 33.8805 38.4448 -4.77252 72.5109 -8.03036
RightUpLeg  -2.51594 -11.4877 -1.36075
RightLeg  11.1784 0.428167 0.0575932
RightFoot  1.31695 0.00226582 0.0663209
RightToes  -34.3935 -0.175316 -0.281312
Spine  3.81618 -2.5852 1.77625
Spine1  7.42158 -4.96674 2.8551
HEad  26.122 28.735 -0.146645
LeftShoulder1  0 -2.42657e-020 -4.95415e-022
LeftArm  -61.4344 14.688 -80.7711
LeftForeArm  72.5993 -7.67646 -1.28894
LeftHand  0.617455 -5.41633 -13.3846
RightShoulder  0 2.42657e-020 1.07489e-018
RightArm  -38.8266 -32.2767 83.6877
RightForeArm  -5.05612 76.2453 45.9811
RightHand  2.75003 12.3172 25.4654
LeftUpLeg  -12.7163 13.9607 9.29211
LeftLeg  12.5603 -1.32566 -0.208521
LeftFoot  10.318 0.0124447 -0.24256
LeftToes  -20.207 2.34596e-006 -6.06653e-008
22
root  -69.7072 33.8759 38.3479 -3.66075 71.1023 -6.41696
RightUpLeg  -1.98073 -11.1662 -2.30187
RightLeg  11.5048 1.68068 0.23207
RightFoot  1.03139 0.00160327 0.0936055
RightToes  -35.4153 -0.182934 -0.287787
Spine  3.77724 -2.56111 1.434
Spine1  7.36246 -4.87545 2.15497
HEad  24.7062 29.8769 -0.919495
LeftShoulder1  0 -2.42657e-020 -4.95415e-022
LeftArm  -64.412 15.7378 -80.4111
LeftForeArm  74.5532 -7.13864 -1.18779
LeftHand  0.584707 -5.36926 -12.8074
RightShoulder  0 2.42657e-020 1.07489e-018
RightArm  -39.2403 -32.7454 84.9453
RightForeArm  -4.11723 76.3747 46.58
RightHand  2.7499 12.502 25.1019
LeftUpLeg  -11.6052 15.5533 9.05851
LeftLeg  13.0591 -1.65099 -0.274123
LeftFoot  9.61974 0.0139134 -0.277909
LeftToes  -20.6337 2.34596e-006 -6.06653e-008
23
root  -69.3945 33.8724 38.2174 -2.54707 70.2571 -5.05907
RightUpLeg  -1.66227 -10.5026 -3.18388
RightLeg  11.7861 2.12245 0.303323
RightFoot  0.775422 0.00190198 0.0963929
RightToes  -36.2508 -0.189247 -0.292979
Spine  3.70054 -2.6069 1.1358
Spine1  7.21733 -4.94678 1.58002
HEad  23.7533 31.2447 -1.70038
LeftShoulder1  0 -2.42657e-020 -4.95415e-022
LeftArm  -65.5816 16.386 -80.4629
LeftForeArm  74.3283 -7.40653 -1.23611
LeftHand  0.592025 -5.71157 -12.2106
RightShoulder  0 2.42657e-020 1.07489e-018
RightArm  -39.7634 -33.5759 86.0325
RightForeArm  -2.80659 76.6391 47.8475
RightHand  2.88467 13.228 24.8848
LeftUpLeg  -10.7837 16.9534 8.58679
LeftLeg  13.1493 -2.15307 -0.360484
LeftFoot  9.04911 0.0172665 -0.339522
LeftToes  -20.9402 2.34596e-006 -6.06653e-008
24
root  -69.0814 33.8751 38.0657 -1.21181 69.9611 -3.60699
RightUpLeg  -1.35234 -10.1378 -4.16253
RightLeg  11.9436 2.31486 0.337178
RightFoot  0.528685 0.00129278 0.0920772
RightToes  -37.069 -0.195503 -0.297974
Spine  3.61208 -2.66457 0.865696
Spine1  7.04065 -5.0638 1.0963
HEad  23.0715 32.3139 -2.3089
LeftShoulder1  0 -2.42657e-020 -4.95415e-022
LeftArm  -65.0015 16.6502 -80.8749
LeftForeArm  71.6999 -8.4556 -1.43066
LeftHand  0.637806 -6.12976 -12.2532
RightShoulder  0 2.42657e-020 1.07489e-018
RightArm  -40.9252 -34.3262 86.9838
RightForeArm  -1.42853 77.0576 50.013
RightHand  2.58821 12.0746 24.4965
LeftUpLeg  -10.1207 18.3231 7.91454
LeftLeg  12.9553 -3.2325 -0.529014
LeftFoot  8.60512 0.0263374 -0.486411
LeftToes  -20.8774 2.34596e-006 -6.06653e-008
25
root  -68.8201 33.8825 37.8844 0.13208 69.6207 -2.10492
RightUpLeg  -1.06001 -9.93213 -5.20785
RightLeg  11.9904 2.6792 0.392271
RightFoot  0.333715 0.00032723 0.0862216
RightToes  -37.5748 -0.199405 -0.301017
Spine  3.57926 -2.65352 0.624226
Spine1  6.96423 -5.05557 0.674313
HEad  22.3847 33.1576 -2.66084
LeftShoulder1  0 -2.42657e-020 -4.95415e-022
LeftArm  -62.7628 16.5936 -81.5415
LeftForeArm  67.3741 -10.1208 -1.74169
LeftHand  0.685753 -6.44069 -12.5257
RightShoulder  0 2.42657e-020 1.07489e-018
RightArm  -41.2554 -34.5828 87.4024
RightForeArm  -0.979452 77.0161 49.7999
RightHand  2.71891 12.7027 24.4531
LeftUpLeg  -9.25701 18.9004 7.17288
LeftLeg  12.2625 -3.46432 -0.523824
LeftFoot  8.51012 0.0282702 -0.518226
LeftToes  -20.927 2.34596e-006 -6.06653e-008
26
root  -68.5792 33.8913 37.7053 1.3714 69.331 -0.700714
RightUpLeg  -0.653533 -9.89752 -6.23979
RightLeg  11.8072 3.19518 0.457153
RightFoot  0.242333 -0.00101628 0.0828355
RightToes  -38.1037 -0.203514 -0.30304
Spine  3.58333 -2.5668 0.388751
Spine1  6.95886 -4.90655 0.280678
HEad  21.4027 33.3999 -3.02396
LeftShoulder1  0 -2.42657e-020 -4.95415e-022
LeftArm  -59.9267 16.0853 -82.2338
LeftForeArm  64.3987 -11.6177 -2.02136
LeftHand  0.642454 -6.66329 -11.384
RightShoulder  0 2.42657e-020 1.07489e-018
RightArm  -41.43 -35.2602 87.8168
RightForeArm  1.22412 77.4212 52.1278
RightHand  2.73566 13.4588 23.2612
LeftUpLeg  -8.59315 19.9153 6.42465
LeftLeg  11.8526 -4.05968 -0.583762
LeftFoot  8.2384 0.0332532 -0.592741
LeftToes  -20.3519 2.34596e-006 -6.06653e-008
27
root  -68.4153 33.8919 37.5294 2.54034 69.6238 0.384644
RightUpLeg  -0.439696 -9.92113 -7.00251
RightLeg  11.576 3.1278 0.43471
RightFoot  0.0404749 -0.00181982 0.0691719
RightToes  -37.8577 -0.2016 -0.302703
Spine  3.49721 -2.56668 0.221754
Spine1  6.75976 -4.93587 0.0214259
HEad  20.7578 33.2496 -3.20592
LeftShoulder1  0 -2.42657e-020 -4.95415e-022
LeftArm  -56.9932 15.1761 -82.8324
LeftForeArm  61.6914 -13.0597 -2.29306
LeftHand  0.606361 -6.72411 -10.6749
RightShoulder  0 2.42657e-020 1.07489e-018
RightArm  -42.4746 -35.2689 88.229
RightForeArm  0.63432 77.277 51.2736
RightHand  2.80411 13.2486 24.1836
LeftUpLeg  -8.3245 18.6598 5.72847
LeftLeg  11.2844 -3.53909 -0.473375
LeftFoot  8.46719 0.0302809 -0.538359
LeftToes  -21.1672 2.34596e-006 -6.06653e-008
28
root  -68.2554 33.8816 37.381 3.20097 70.3884 1.12857
RightUpLeg  0.189137 -9.82637 -7.51752
RightLeg  11.2141 2.49951 0.331638
RightFoot  -0.285198 -0.00236632 0.0511296
RightToes  -36.7939 -0.193392 -0.296305
Spine  3.48109 -2.65512 0.125568
Spine1  6.69729 -5.15144 -0.0951966
HEad  20.4423 32.9216 -2.91354
LeftShoulder1  0 -2.42657e-020 -4.95415e-022
LeftArm  -54.1982 13.8136 -83.3818
LeftForeArm  59.8135 -14.2407 -2.51705
LeftHand  0.531915 -6.73713 -9.39787
RightShoulder  0 2.42657e-020 1.07489e-018
RightArm  -43.326 -35.4737 88.4333
RightForeArm  0.249884 77.3791 51.8577
RightHand  2.77905 12.8519 24.6905
LeftUpLeg  -8.28935 18.3889 5.07106
LeftLeg  11.2271 -3.5136 -0.4664
LeftFoot  8.02024 0.0296636 -0.514751
LeftToes  -20.0239 2.34596e-006 -6.06653e-008
29
root  -68.1167 33.8722 37.267 3.86797 71.6242 2.03317
RightUpLeg  1.09064 -10.1272 -8.02266
RightLeg  10.7964 1.74787 0.219397
RightFoot  -0.52881 -0.00354305 0.0439894
RightToes  -35.7585 -0.185518 -0.289931
Spine  3.50997 -2.80412 0.0127718
Spine1  6.7248 -5.48615 -0.254172
HEad  20.7163 32.3284 -2.51178
LeftShoulder1  0 -2.42657e-020 -4.95415e-022
LeftArm  -51.1347 12.1641 -83.7201
LeftForeArm  57.8984 -15.2722 -2.71515
LeftHand  0.524434 -6.67226 -9.35789
RightShoulder  0 2.42657e-020 1.07489e-018
RightArm  -43.9528 -35.2992 88.6733
RightForeArm  -0.0248099 77.3564 51.7185
RightHand  2.76989 12.8895 24.5434
LeftUpLeg  -8.21163 16.8654 4.5235
LeftLeg  11.2189 -3.14892 -0.41772
LeftFoot  7.88491 0.0276715 -0.463394
LeftToes  -19.6813 2.34596e-006 -6.06653e-008
30
root  -67.9874 33.8584 37.2111 4.58156 72.8049 3.08966
RightUpLeg  1.86967 -10.9857 -8.58647
RightLeg  10.8728 1.63897 0.208019
RightFoot  -0.953902 -0.00417966 0.0310862
RightToes  -34.9483 -0.181807 -0.286863
Spine  3.53193 -2.86771 -0.0952486
Spine1  6.74235 -5.65103 -0.396377
HEad  21.5954 31.5863 -1.79127
LeftShoulder1  0 -2.42657e-020 -4.95415e-022
LeftArm  -47.7664 10.411 -83.9939
LeftForeArm  56.1526 -16.0739 -2.87092
LeftHand  0.529034 -6.59156 -9.54728
RightShoulder  0 2.42657e-020 1.07489e-018
RightArm  -44.4657 -34.9778 88.8616
RightForeArm  0.0786838 77.3209 51.5144
RightHand  2.71172 12.7912 24.2284
LeftUpLeg  -7.99014 15.7878 4.1193
LeftLeg  11.2365 -3.20298 -0.425864
LeftFoot  7.76564 0.0299296 -0.471144
LeftToes  -19.543 2.34596e-006 -6.06653e-008
